<mxfile host="app.diagrams.net" modified="2023-08-17T17:10:58.223Z" agent="Mozilla/5.0 (Windows NT 10.0; Win64; x64) AppleWebKit/537.36 (KHTML, like Gecko) Chrome/115.0.0.0 Safari/537.36" etag="zR2baPTNbiyqbsgMxgtF" version="21.6.8" type="device">
  <diagram name="Page-1" id="5S7XBAYACDVpQ4MUEkE2">
    <mxGraphModel dx="1118" dy="572" grid="1" gridSize="10" guides="1" tooltips="1" connect="1" arrows="1" fold="1" page="1" pageScale="1" pageWidth="850" pageHeight="1100" math="0" shadow="0">
      <root>
        <mxCell id="0" />
        <mxCell id="1" parent="0" />
        <mxCell id="wAHFAcoijXSZADkG11Bx-6" style="edgeStyle=orthogonalEdgeStyle;rounded=0;orthogonalLoop=1;jettySize=auto;html=1;entryX=0.5;entryY=0;entryDx=0;entryDy=0;" edge="1" parent="1" source="wAHFAcoijXSZADkG11Bx-2" target="wAHFAcoijXSZADkG11Bx-3">
          <mxGeometry relative="1" as="geometry" />
        </mxCell>
        <mxCell id="wAHFAcoijXSZADkG11Bx-7" style="edgeStyle=orthogonalEdgeStyle;rounded=0;orthogonalLoop=1;jettySize=auto;html=1;" edge="1" parent="1" source="wAHFAcoijXSZADkG11Bx-2" target="wAHFAcoijXSZADkG11Bx-4">
          <mxGeometry relative="1" as="geometry" />
        </mxCell>
        <mxCell id="wAHFAcoijXSZADkG11Bx-8" style="edgeStyle=orthogonalEdgeStyle;rounded=0;orthogonalLoop=1;jettySize=auto;html=1;entryX=0.5;entryY=0;entryDx=0;entryDy=0;" edge="1" parent="1" source="wAHFAcoijXSZADkG11Bx-2" target="wAHFAcoijXSZADkG11Bx-5">
          <mxGeometry relative="1" as="geometry">
            <Array as="points">
              <mxPoint x="425" y="250" />
              <mxPoint x="135" y="250" />
            </Array>
          </mxGeometry>
        </mxCell>
        <mxCell id="wAHFAcoijXSZADkG11Bx-10" style="edgeStyle=orthogonalEdgeStyle;rounded=0;orthogonalLoop=1;jettySize=auto;html=1;entryX=0.5;entryY=0;entryDx=0;entryDy=0;" edge="1" parent="1" source="wAHFAcoijXSZADkG11Bx-2" target="wAHFAcoijXSZADkG11Bx-9">
          <mxGeometry relative="1" as="geometry">
            <Array as="points">
              <mxPoint x="425" y="250" />
              <mxPoint x="715" y="250" />
            </Array>
          </mxGeometry>
        </mxCell>
        <mxCell id="wAHFAcoijXSZADkG11Bx-13" style="edgeStyle=orthogonalEdgeStyle;rounded=0;orthogonalLoop=1;jettySize=auto;html=1;entryX=0.462;entryY=-0.005;entryDx=0;entryDy=0;entryPerimeter=0;" edge="1" parent="1" source="wAHFAcoijXSZADkG11Bx-2" target="wAHFAcoijXSZADkG11Bx-11">
          <mxGeometry relative="1" as="geometry">
            <Array as="points">
              <mxPoint x="425" y="360" />
              <mxPoint x="228" y="360" />
            </Array>
          </mxGeometry>
        </mxCell>
        <mxCell id="wAHFAcoijXSZADkG11Bx-14" style="edgeStyle=orthogonalEdgeStyle;rounded=0;orthogonalLoop=1;jettySize=auto;html=1;" edge="1" parent="1" source="wAHFAcoijXSZADkG11Bx-2" target="wAHFAcoijXSZADkG11Bx-12">
          <mxGeometry relative="1" as="geometry">
            <Array as="points">
              <mxPoint x="425" y="360" />
              <mxPoint x="615" y="360" />
            </Array>
          </mxGeometry>
        </mxCell>
        <mxCell id="wAHFAcoijXSZADkG11Bx-17" style="edgeStyle=orthogonalEdgeStyle;rounded=0;orthogonalLoop=1;jettySize=auto;html=1;entryX=0.5;entryY=0;entryDx=0;entryDy=0;" edge="1" parent="1" source="wAHFAcoijXSZADkG11Bx-2" target="wAHFAcoijXSZADkG11Bx-15">
          <mxGeometry relative="1" as="geometry">
            <Array as="points">
              <mxPoint x="425" y="460" />
              <mxPoint x="325" y="460" />
            </Array>
          </mxGeometry>
        </mxCell>
        <mxCell id="wAHFAcoijXSZADkG11Bx-18" style="edgeStyle=orthogonalEdgeStyle;rounded=0;orthogonalLoop=1;jettySize=auto;html=1;" edge="1" parent="1" source="wAHFAcoijXSZADkG11Bx-2" target="wAHFAcoijXSZADkG11Bx-16">
          <mxGeometry relative="1" as="geometry">
            <Array as="points">
              <mxPoint x="425" y="460" />
              <mxPoint x="525" y="460" />
            </Array>
          </mxGeometry>
        </mxCell>
        <mxCell id="wAHFAcoijXSZADkG11Bx-2" value="KETUA PENGURUS&lt;br&gt;&lt;table style=&quot;border-collapse:&lt;br/&gt; collapse;width:172pt&quot; width=&quot;230&quot; cellspacing=&quot;0&quot; cellpadding=&quot;0&quot; border=&quot;0&quot;&gt;&lt;tbody&gt;&lt;tr style=&quot;height:15.65pt&quot; height=&quot;21&quot;&gt;  &lt;td style=&quot;height:15.65pt;width:172pt&quot; width=&quot;230&quot; class=&quot;xl63&quot; height=&quot;21&quot;&gt;Rd. Luky Djohari Soemawilaga&lt;/td&gt;&lt;/tr&gt;&lt;/tbody&gt;&lt;/table&gt;" style="rounded=1;whiteSpace=wrap;html=1;verticalAlign=middle;" vertex="1" parent="1">
          <mxGeometry x="330" y="70" width="190" height="60" as="geometry" />
        </mxCell>
        <mxCell id="wAHFAcoijXSZADkG11Bx-3" value="SEKRETARIS PENGURUS&lt;br&gt;&lt;table style=&quot;border-collapse:&lt;br/&gt; collapse;width:172pt&quot; width=&quot;230&quot; cellspacing=&quot;0&quot; cellpadding=&quot;0&quot; border=&quot;0&quot;&gt;&lt;tbody&gt;&lt;tr style=&quot;height:15.65pt&quot; height=&quot;21&quot;&gt;  &lt;td style=&quot;height:15.65pt;width:172pt&quot; width=&quot;230&quot; class=&quot;xl63&quot; height=&quot;21&quot;&gt;&lt;table style=&quot;border-collapse:&lt;br/&gt; collapse;width:172pt&quot; width=&quot;230&quot; cellspacing=&quot;0&quot; cellpadding=&quot;0&quot; border=&quot;0&quot;&gt;&lt;tbody&gt;&lt;tr style=&quot;height:15.05pt&quot; height=&quot;20&quot;&gt;  &lt;td style=&quot;height:15.05pt;width:172pt&quot; width=&quot;230&quot; class=&quot;xl65&quot; height=&quot;20&quot;&gt;Rd.Dadang Wahyu&lt;/td&gt;&lt;/tr&gt;&lt;/tbody&gt;&lt;/table&gt;&lt;/td&gt;&lt;/tr&gt;&lt;/tbody&gt;&lt;/table&gt;" style="rounded=1;whiteSpace=wrap;html=1;verticalAlign=middle;" vertex="1" parent="1">
          <mxGeometry x="140" y="170" width="190" height="60" as="geometry" />
        </mxCell>
        <mxCell id="wAHFAcoijXSZADkG11Bx-4" value="BENDAHARA PENGURUS&lt;br&gt;&lt;table style=&quot;border-collapse:&lt;br/&gt; collapse;width:172pt&quot; width=&quot;230&quot; cellspacing=&quot;0&quot; cellpadding=&quot;0&quot; border=&quot;0&quot;&gt;&lt;tbody&gt;&lt;tr style=&quot;height:15.65pt&quot; height=&quot;21&quot;&gt;  &lt;td style=&quot;height:15.65pt;width:172pt&quot; width=&quot;230&quot; class=&quot;xl63&quot; height=&quot;21&quot;&gt;&lt;table style=&quot;border-collapse:&lt;br/&gt; collapse;width:172pt&quot; width=&quot;230&quot; cellspacing=&quot;0&quot; cellpadding=&quot;0&quot; border=&quot;0&quot;&gt;&lt;tbody&gt;&lt;tr style=&quot;mso-height-source:userset;height:22.55pt&quot; height=&quot;30&quot;&gt;  &lt;td style=&quot;height:22.55pt;width:172pt&quot; width=&quot;230&quot; class=&quot;xl65&quot; height=&quot;30&quot;&gt;Johan Alisyam&lt;/td&gt;&lt;/tr&gt;&lt;/tbody&gt;&lt;/table&gt;&lt;/td&gt;&lt;/tr&gt;&lt;/tbody&gt;&lt;/table&gt;" style="rounded=1;whiteSpace=wrap;html=1;verticalAlign=middle;" vertex="1" parent="1">
          <mxGeometry x="520" y="170" width="190" height="60" as="geometry" />
        </mxCell>
        <mxCell id="wAHFAcoijXSZADkG11Bx-5" value="BIDANG ASET&lt;br&gt;&lt;table style=&quot;border-collapse:&lt;br/&gt; collapse;width:172pt&quot; width=&quot;230&quot; cellspacing=&quot;0&quot; cellpadding=&quot;0&quot; border=&quot;0&quot;&gt;&lt;tbody&gt;&lt;tr style=&quot;height:15.65pt&quot; height=&quot;21&quot;&gt;  &lt;td style=&quot;height:15.65pt;width:172pt&quot; width=&quot;230&quot; class=&quot;xl63&quot; height=&quot;21&quot;&gt;&lt;table style=&quot;border-collapse:&lt;br/&gt; collapse;width:172pt&quot; width=&quot;230&quot; cellspacing=&quot;0&quot; cellpadding=&quot;0&quot; border=&quot;0&quot;&gt;&lt;tbody&gt;&lt;tr style=&quot;mso-height-source:userset;height:22.55pt&quot; height=&quot;30&quot;&gt;  &lt;td style=&quot;height:22.55pt;width:172pt&quot; width=&quot;230&quot; class=&quot;xl65&quot; height=&quot;30&quot;&gt;&lt;table style=&quot;border-collapse:&lt;br/&gt; collapse;width:172pt&quot; width=&quot;230&quot; cellspacing=&quot;0&quot; cellpadding=&quot;0&quot; border=&quot;0&quot;&gt;&lt;tbody&gt;&lt;tr style=&quot;mso-height-source:userset;height:23.35pt&quot; height=&quot;31&quot;&gt;  &lt;td style=&quot;height:23.35pt;width:172pt&quot; width=&quot;230&quot; class=&quot;xl65&quot; height=&quot;31&quot;&gt;Rd.Moch. Zaitun Kartakusumah&lt;/td&gt;&lt;/tr&gt;&lt;/tbody&gt;&lt;/table&gt;&lt;/td&gt;&lt;/tr&gt;&lt;/tbody&gt;&lt;/table&gt;&lt;/td&gt;&lt;/tr&gt;&lt;/tbody&gt;&lt;/table&gt;" style="rounded=1;whiteSpace=wrap;html=1;verticalAlign=middle;" vertex="1" parent="1">
          <mxGeometry x="40" y="290" width="190" height="60" as="geometry" />
        </mxCell>
        <mxCell id="wAHFAcoijXSZADkG11Bx-9" value="BIDANG ASET&lt;br&gt;&lt;table style=&quot;border-collapse:&lt;br/&gt; collapse;width:172pt&quot; width=&quot;230&quot; cellspacing=&quot;0&quot; cellpadding=&quot;0&quot; border=&quot;0&quot;&gt;&lt;tbody&gt;&lt;tr style=&quot;height:15.65pt&quot; height=&quot;21&quot;&gt;  &lt;td style=&quot;height:15.65pt;width:172pt&quot; width=&quot;230&quot; class=&quot;xl63&quot; height=&quot;21&quot;&gt;&lt;table style=&quot;border-collapse:&lt;br/&gt; collapse;width:172pt&quot; width=&quot;230&quot; cellspacing=&quot;0&quot; cellpadding=&quot;0&quot; border=&quot;0&quot;&gt;&lt;tbody&gt;&lt;tr style=&quot;mso-height-source:userset;height:22.55pt&quot; height=&quot;30&quot;&gt;  &lt;td style=&quot;height:22.55pt;width:172pt&quot; width=&quot;230&quot; class=&quot;xl65&quot; height=&quot;30&quot;&gt;&lt;table style=&quot;border-collapse:&lt;br/&gt; collapse;width:172pt&quot; width=&quot;230&quot; cellspacing=&quot;0&quot; cellpadding=&quot;0&quot; border=&quot;0&quot;&gt;&lt;tbody&gt;&lt;tr style=&quot;mso-height-source:userset;height:23.35pt&quot; height=&quot;31&quot;&gt;  &lt;td style=&quot;height:23.35pt;width:172pt&quot; width=&quot;230&quot; class=&quot;xl65&quot; height=&quot;31&quot;&gt;&lt;table style=&quot;border-collapse:&lt;br/&gt; collapse;width:172pt&quot; width=&quot;230&quot; cellspacing=&quot;0&quot; cellpadding=&quot;0&quot; border=&quot;0&quot;&gt;&lt;tbody&gt;&lt;tr style=&quot;mso-height-source:userset;height:24.75pt&quot; height=&quot;33&quot;&gt;  &lt;td style=&quot;height:24.75pt;width:172pt&quot; width=&quot;230&quot; class=&quot;xl65&quot; height=&quot;33&quot;&gt;H. Idi Kusnadi, Spd.&lt;/td&gt;&lt;/tr&gt;&lt;/tbody&gt;&lt;/table&gt;&lt;/td&gt;&lt;/tr&gt;&lt;/tbody&gt;&lt;/table&gt;&lt;/td&gt;&lt;/tr&gt;&lt;/tbody&gt;&lt;/table&gt;&lt;/td&gt;&lt;/tr&gt;&lt;/tbody&gt;&lt;/table&gt;" style="rounded=1;whiteSpace=wrap;html=1;verticalAlign=middle;" vertex="1" parent="1">
          <mxGeometry x="620" y="290" width="190" height="60" as="geometry" />
        </mxCell>
        <mxCell id="wAHFAcoijXSZADkG11Bx-11" value="PELAKSANAN SEKRETARIAT&lt;br&gt;&lt;table style=&quot;border-collapse:&lt;br/&gt; collapse;width:172pt&quot; width=&quot;230&quot; cellspacing=&quot;0&quot; cellpadding=&quot;0&quot; border=&quot;0&quot;&gt;&lt;tbody&gt;&lt;tr style=&quot;height:15.65pt&quot; height=&quot;21&quot;&gt;  &lt;td style=&quot;height:15.65pt;width:172pt&quot; width=&quot;230&quot; class=&quot;xl63&quot; height=&quot;21&quot;&gt;&lt;table style=&quot;border-collapse:&lt;br/&gt; collapse;width:172pt&quot; width=&quot;230&quot; cellspacing=&quot;0&quot; cellpadding=&quot;0&quot; border=&quot;0&quot;&gt;&lt;tbody&gt;&lt;tr style=&quot;mso-height-source:userset;height:22.55pt&quot; height=&quot;30&quot;&gt;  &lt;td style=&quot;height:22.55pt;width:172pt&quot; width=&quot;230&quot; class=&quot;xl65&quot; height=&quot;30&quot;&gt;&lt;table style=&quot;border-collapse:&lt;br/&gt; collapse;width:172pt&quot; width=&quot;230&quot; cellspacing=&quot;0&quot; cellpadding=&quot;0&quot; border=&quot;0&quot;&gt;&lt;tbody&gt;&lt;tr style=&quot;mso-height-source:userset;height:23.35pt&quot; height=&quot;31&quot;&gt;  &lt;td style=&quot;height:23.35pt;width:172pt&quot; width=&quot;230&quot; class=&quot;xl65&quot; height=&quot;31&quot;&gt;&lt;table style=&quot;border-collapse:&lt;br/&gt; collapse;width:172pt&quot; width=&quot;230&quot; cellspacing=&quot;0&quot; cellpadding=&quot;0&quot; border=&quot;0&quot;&gt;&lt;tbody&gt;&lt;tr style=&quot;mso-height-source:userset;height:30.7pt&quot; height=&quot;41&quot;&gt;  &lt;td style=&quot;height:30.7pt;width:172pt&quot; width=&quot;230&quot; class=&quot;xl65&quot; height=&quot;41&quot;&gt;Rd. Ati Yuniati Bratasoeria&lt;/td&gt;&lt;/tr&gt;&lt;/tbody&gt;&lt;/table&gt;&lt;/td&gt;&lt;/tr&gt;&lt;/tbody&gt;&lt;/table&gt;&lt;/td&gt;&lt;/tr&gt;&lt;/tbody&gt;&lt;/table&gt;&lt;/td&gt;&lt;/tr&gt;&lt;/tbody&gt;&lt;/table&gt;" style="rounded=1;whiteSpace=wrap;html=1;verticalAlign=middle;" vertex="1" parent="1">
          <mxGeometry x="140" y="390" width="190" height="60" as="geometry" />
        </mxCell>
        <mxCell id="wAHFAcoijXSZADkG11Bx-12" value="PELAKSANA SEKRETARIAT&lt;br&gt;&lt;table style=&quot;border-collapse:&lt;br/&gt; collapse;width:172pt&quot; width=&quot;230&quot; cellspacing=&quot;0&quot; cellpadding=&quot;0&quot; border=&quot;0&quot;&gt;&lt;tbody&gt;&lt;tr style=&quot;height:15.65pt&quot; height=&quot;21&quot;&gt;  &lt;td style=&quot;height:15.65pt;width:172pt&quot; width=&quot;230&quot; class=&quot;xl63&quot; height=&quot;21&quot;&gt;&lt;table style=&quot;border-collapse:&lt;br/&gt; collapse;width:172pt&quot; width=&quot;230&quot; cellspacing=&quot;0&quot; cellpadding=&quot;0&quot; border=&quot;0&quot;&gt;&lt;tbody&gt;&lt;tr style=&quot;mso-height-source:userset;height:22.55pt&quot; height=&quot;30&quot;&gt;  &lt;td style=&quot;height:22.55pt;width:172pt&quot; width=&quot;230&quot; class=&quot;xl65&quot; height=&quot;30&quot;&gt;&lt;table style=&quot;border-collapse:&lt;br/&gt; collapse;width:172pt&quot; width=&quot;230&quot; cellspacing=&quot;0&quot; cellpadding=&quot;0&quot; border=&quot;0&quot;&gt;&lt;tbody&gt;&lt;tr style=&quot;mso-height-source:userset;height:23.35pt&quot; height=&quot;31&quot;&gt;  &lt;td style=&quot;height:23.35pt;width:172pt&quot; width=&quot;230&quot; class=&quot;xl65&quot; height=&quot;31&quot;&gt;&lt;table style=&quot;border-collapse:&lt;br/&gt; collapse;width:172pt&quot; width=&quot;230&quot; cellspacing=&quot;0&quot; cellpadding=&quot;0&quot; border=&quot;0&quot;&gt;&lt;tbody&gt;&lt;tr style=&quot;height:15.05pt&quot; height=&quot;20&quot;&gt;  &lt;td style=&quot;height:15.05pt;width:172pt&quot; width=&quot;230&quot; class=&quot;xl65&quot; height=&quot;20&quot;&gt;Rd. Mohammad Zulfadin A&lt;/td&gt;&lt;/tr&gt;&lt;/tbody&gt;&lt;/table&gt;&lt;/td&gt;&lt;/tr&gt;&lt;/tbody&gt;&lt;/table&gt;&lt;/td&gt;&lt;/tr&gt;&lt;/tbody&gt;&lt;/table&gt;&lt;/td&gt;&lt;/tr&gt;&lt;/tbody&gt;&lt;/table&gt;" style="rounded=1;whiteSpace=wrap;html=1;verticalAlign=middle;" vertex="1" parent="1">
          <mxGeometry x="520" y="390" width="190" height="60" as="geometry" />
        </mxCell>
        <mxCell id="wAHFAcoijXSZADkG11Bx-15" value="KEPALA BIDANG PERPUSTAKAAN&lt;br style=&quot;font-size: 11px;&quot;&gt;&lt;table style=&quot;width: 172pt; font-size: 11px;&quot; width=&quot;230&quot; cellspacing=&quot;0&quot; cellpadding=&quot;0&quot; border=&quot;0&quot;&gt;&lt;tbody style=&quot;font-size: 11px;&quot;&gt;&lt;tr style=&quot;height: 15.65pt; font-size: 11px;&quot; height=&quot;21&quot;&gt;  &lt;td style=&quot;height: 15.65pt; width: 172pt; font-size: 11px;&quot; width=&quot;230&quot; class=&quot;xl63&quot; height=&quot;21&quot;&gt;&lt;table style=&quot;width: 172pt; font-size: 11px;&quot; width=&quot;230&quot; cellspacing=&quot;0&quot; cellpadding=&quot;0&quot; border=&quot;0&quot;&gt;&lt;tbody style=&quot;font-size: 11px;&quot;&gt;&lt;tr style=&quot;height: 22.55pt; font-size: 11px;&quot; height=&quot;30&quot;&gt;  &lt;td style=&quot;height: 22.55pt; width: 172pt; font-size: 11px;&quot; width=&quot;230&quot; class=&quot;xl65&quot; height=&quot;30&quot;&gt;&lt;table style=&quot;width: 172pt; font-size: 11px;&quot; width=&quot;230&quot; cellspacing=&quot;0&quot; cellpadding=&quot;0&quot; border=&quot;0&quot;&gt;&lt;tbody style=&quot;font-size: 11px;&quot;&gt;&lt;tr style=&quot;height: 23.35pt; font-size: 11px;&quot; height=&quot;31&quot;&gt;  &lt;td style=&quot;height: 23.35pt; width: 172pt; font-size: 11px;&quot; width=&quot;230&quot; class=&quot;xl65&quot; height=&quot;31&quot;&gt;&lt;table style=&quot;width: 172pt; font-size: 11px;&quot; width=&quot;230&quot; cellspacing=&quot;0&quot; cellpadding=&quot;0&quot; border=&quot;0&quot;&gt;&lt;tbody style=&quot;font-size: 11px;&quot;&gt;&lt;tr style=&quot;height: 15.05pt; font-size: 11px;&quot; height=&quot;20&quot;&gt;  &lt;td style=&quot;height: 15.05pt; width: 172pt; font-size: 11px;&quot; width=&quot;230&quot; class=&quot;xl65&quot; height=&quot;20&quot;&gt;&lt;table style=&quot;border-collapse:&lt;br/&gt; collapse;width:172pt&quot; width=&quot;230&quot; cellspacing=&quot;0&quot; cellpadding=&quot;0&quot; border=&quot;0&quot;&gt;&lt;tbody&gt;&lt;tr style=&quot;height:15.05pt&quot; height=&quot;20&quot;&gt;  &lt;td style=&quot;height:15.05pt;width:172pt&quot; width=&quot;230&quot; class=&quot;xl65&quot; height=&quot;20&quot;&gt;NR. Hj. Fetty Rochaeti Soemawilaga&lt;/td&gt;&lt;/tr&gt;&lt;/tbody&gt;&lt;/table&gt;&lt;/td&gt;&lt;/tr&gt;&lt;/tbody&gt;&lt;/table&gt;&lt;/td&gt;&lt;/tr&gt;&lt;/tbody&gt;&lt;/table&gt;&lt;/td&gt;&lt;/tr&gt;&lt;/tbody&gt;&lt;/table&gt;&lt;/td&gt;&lt;/tr&gt;&lt;/tbody&gt;&lt;/table&gt;" style="rounded=1;whiteSpace=wrap;html=1;verticalAlign=middle;fontSize=11;" vertex="1" parent="1">
          <mxGeometry x="230" y="490" width="190" height="60" as="geometry" />
        </mxCell>
        <mxCell id="wAHFAcoijXSZADkG11Bx-16" value="PENDAMPING MAKUTA &amp;amp; SIGER&lt;br style=&quot;font-size: 11px;&quot;&gt;&lt;table style=&quot;width: 172pt; font-size: 11px;&quot; width=&quot;230&quot; cellspacing=&quot;0&quot; cellpadding=&quot;0&quot; border=&quot;0&quot;&gt;&lt;tbody style=&quot;font-size: 11px;&quot;&gt;&lt;tr style=&quot;height: 15.65pt; font-size: 11px;&quot; height=&quot;21&quot;&gt;  &lt;td style=&quot;height: 15.65pt; width: 172pt; font-size: 11px;&quot; width=&quot;230&quot; class=&quot;xl63&quot; height=&quot;21&quot;&gt;&lt;table style=&quot;width: 172pt; font-size: 11px;&quot; width=&quot;230&quot; cellspacing=&quot;0&quot; cellpadding=&quot;0&quot; border=&quot;0&quot;&gt;&lt;tbody style=&quot;font-size: 11px;&quot;&gt;&lt;tr style=&quot;height: 22.55pt; font-size: 11px;&quot; height=&quot;30&quot;&gt;  &lt;td style=&quot;height: 22.55pt; width: 172pt; font-size: 11px;&quot; width=&quot;230&quot; class=&quot;xl65&quot; height=&quot;30&quot;&gt;&lt;table style=&quot;width: 172pt; font-size: 11px;&quot; width=&quot;230&quot; cellspacing=&quot;0&quot; cellpadding=&quot;0&quot; border=&quot;0&quot;&gt;&lt;tbody style=&quot;font-size: 11px;&quot;&gt;&lt;tr style=&quot;height: 23.35pt; font-size: 11px;&quot; height=&quot;31&quot;&gt;  &lt;td style=&quot;height: 23.35pt; width: 172pt; font-size: 11px;&quot; width=&quot;230&quot; class=&quot;xl65&quot; height=&quot;31&quot;&gt;&lt;table style=&quot;width: 172pt; font-size: 11px;&quot; width=&quot;230&quot; cellspacing=&quot;0&quot; cellpadding=&quot;0&quot; border=&quot;0&quot;&gt;&lt;tbody style=&quot;font-size: 11px;&quot;&gt;&lt;tr style=&quot;height: 15.05pt; font-size: 11px;&quot; height=&quot;20&quot;&gt;  &lt;td style=&quot;height: 15.05pt; width: 172pt; font-size: 11px;&quot; width=&quot;230&quot; class=&quot;xl65&quot; height=&quot;20&quot;&gt;&lt;table style=&quot;border-collapse:&lt;br/&gt; collapse;width:172pt&quot; width=&quot;230&quot; cellspacing=&quot;0&quot; cellpadding=&quot;0&quot; border=&quot;0&quot;&gt;&lt;tbody&gt;&lt;tr style=&quot;height:15.05pt&quot; height=&quot;20&quot;&gt;  &lt;td style=&quot;height:15.05pt;width:172pt&quot; width=&quot;230&quot; class=&quot;xl65&quot; height=&quot;20&quot;&gt;NR. Eni Kusmayati&lt;/td&gt;&lt;/tr&gt;&lt;/tbody&gt;&lt;/table&gt;&lt;/td&gt;&lt;/tr&gt;&lt;/tbody&gt;&lt;/table&gt;&lt;/td&gt;&lt;/tr&gt;&lt;/tbody&gt;&lt;/table&gt;&lt;/td&gt;&lt;/tr&gt;&lt;/tbody&gt;&lt;/table&gt;&lt;/td&gt;&lt;/tr&gt;&lt;/tbody&gt;&lt;/table&gt;" style="rounded=1;whiteSpace=wrap;html=1;verticalAlign=middle;fontSize=11;" vertex="1" parent="1">
          <mxGeometry x="430" y="490" width="190" height="60" as="geometry" />
        </mxCell>
      </root>
    </mxGraphModel>
  </diagram>
</mxfile>
